<svg xmlns="http://www.w3.org/2000/svg" width="60.52" height="60.519" viewBox="0 0 60.52 60.519"><defs><style>.a{stroke:rgba(0,0,0,0);stroke-miterlimit:10;}</style></defs><g transform="translate(0.5 0.5)" fill="#264a9f"><path class="a" d="M1082.841,539.369a29.762,29.762,0,1,0,8.716,21.044A29.667,29.667,0,0,0,1082.841,539.369Zm-2.86,39.228a25.719,25.719,0,1,1,7.531-18.184A25.546,25.546,0,0,1,1079.981,578.6Z" transform="translate(-1032.037 -530.653)"/><path class="a" d="M1044.271,548.593a4.487,4.487,0,1,0-4.49-4.488A4.492,4.492,0,0,0,1044.271,548.593Z" transform="translate(-1024.119 -521.489)"/><path class="a" d="M1053.775,548.593a4.487,4.487,0,1,0-4.49-4.488A4.493,4.493,0,0,0,1053.775,548.593Z" transform="translate(-1014.404 -521.489)"/><path class="a" d="M1068.37,547.24h-.423a2.27,2.27,0,0,0-2.073,1.341,10.791,10.791,0,0,1-5.63,5.527,14.215,14.215,0,0,1-11.236,0,10.771,10.771,0,0,1-5.62-5.519,2.27,2.27,0,0,0-2.073-1.347l-.5.02-.378.16a2.279,2.279,0,0,0-1.191,3.011,15.31,15.31,0,0,0,7.96,7.838,18.319,18.319,0,0,0,7.385,1.549.555.555,0,0,0,.081,0,18.3,18.3,0,0,0,7.373-1.539,15.312,15.312,0,0,0,7.976-7.846l.344-.948-.726-1.7Z" transform="translate(-1024.863 -513.699)"/></g></svg>