<svg xmlns="http://www.w3.org/2000/svg" width="25.336" height="34.96" viewBox="0 0 25.336 34.96"><defs><style>.a{stroke:rgba(0,0,0,0);stroke-miterlimit:10;}</style></defs><g transform="translate(-948.247 -523.435)" fill="#264a9f"><path class="a" d="M970.458,527.844h-3.711v-.006a1.654,1.654,0,0,0-1.63-1.678h-1.43a2.773,2.773,0,0,0-2.776-2.224,2.767,2.767,0,0,0-2.66,2.224h-1.423a1.646,1.646,0,0,0-1.634,1.636l-3.822.013a2.63,2.63,0,0,0-2.625,2.622V555.27a2.63,2.63,0,0,0,2.625,2.625h19.086a2.631,2.631,0,0,0,2.625-2.625v-24.8A2.63,2.63,0,0,0,970.458,527.844Zm-13.421.23h2.127a1.039,1.039,0,0,0,.763-.416,1.221,1.221,0,0,0,.187-.624v-.083l-.025-.079a.387.387,0,0,1-.013-.141.852.852,0,0,1,.848-.854.879.879,0,0,1,.863.884.36.36,0,0,1-.017.123.852.852,0,0,0,.221.848,1.741,1.741,0,0,0,.734.342h2.1l-.023,1.382h-7.762ZM971.2,555.3a.722.722,0,0,1-.709.713H951.376a.723.723,0,0,1-.713-.709V530.473a.723.723,0,0,1,.709-.713h3.749v.23a1.446,1.446,0,0,0,1.452,1.455h8.761a1.452,1.452,0,0,0,1.446-1.452v-.233h3.711a.722.722,0,0,1,.712.709Z"/><path class="a" d="M967.23,536.693h-13a1,1,0,0,0,0,2h13a1,1,0,0,0,0-2Z"/><path class="a" d="M963.23,541.693h-9a1,1,0,0,0,0,2h9a1,1,0,0,0,0-2Z"/></g></svg>