<svg xmlns="http://www.w3.org/2000/svg" width="27.412" height="33.183" viewBox="0 0 27.412 33.183"><defs><style>.b{stroke:rgba(0,0,0,0);stroke-miterlimit:10;}</style></defs><g transform="translate(-1087.427 -538.839)"><path class="a" fill="#fff" d="M1089.931,547.386l.2,10.218c.075,5.991,5.586,9.27,10.987,11.684,5.4-2.41,10.914-5.687,11.027-11.684l.2-10.218c-4.948-.668-8.321-2.169-11.227-5C1098.243,545.215,1094.884,546.717,1089.931,547.386Zm15.282,4.493a1,1,0,1,1,1.414,1.414l-6.45,6.451-4.214-4.213a1,1,0,0,1,1.414-1.414l.431.432,2.369,2.367,3.878-3.879Z"/><path class="b" fill="#264a9f" d="M1114.2,545.61c-5.848-.691-8.66-1.422-12.975-5.936l-.109-.113-.108.113c-4.324,4.525-7.122,5.254-12.937,5.936l-.134.017.2,11.982c.155,7.389,6.467,10.885,12.918,13.833l.062.029.063-.029c6.472-2.961,12.8-6.468,12.918-13.833l.236-11.846,0-.136Zm-2.054,11.994c-.113,6-5.626,9.274-11.027,11.684-5.4-2.414-10.912-5.693-10.987-11.684l-.2-10.218c4.953-.669,8.312-2.171,11.183-5,2.906,2.828,6.279,4.329,11.227,5Z"/><path class="b" fill="#264a9f" d="M1097.808,554.549l-.431-.432a1,1,0,0,0-1.414,1.414l4.214,4.213,6.45-6.451a1,1,0,1,0-1.414-1.414l-1.158,1.158-3.878,3.879Z"/></g></svg>